<svg xmlns="http://www.w3.org/2000/svg" xmlns:xlink="http://www.w3.org/1999/xlink" viewBox="0 0 64 64"><defs><style>.cls-1{fill:url(#linear-gradient);}.cls-2{fill:#b4cde1;}.cls-3{fill:url(#linear-gradient-2);}.cls-4{fill:url(#linear-gradient-3);}.cls-5{fill:url(#linear-gradient-4);}.cls-6{fill:url(#linear-gradient-5);}</style><linearGradient id="linear-gradient" x1="25" y1="60" x2="25" y2="4" gradientUnits="userSpaceOnUse"><stop offset="0" stop-color="#d3e6f5"/><stop offset="1" stop-color="#f0f7fc"/></linearGradient><linearGradient id="linear-gradient-2" x1="49.92" y1="52.27" x2="59.99" y2="52.27" gradientUnits="userSpaceOnUse"><stop offset="0" stop-color="#54a5ff"/><stop offset="1" stop-color="#8ad3fe"/></linearGradient><linearGradient id="linear-gradient-3" x1="44" y1="53" x2="44" y2="29" xlink:href="#linear-gradient-2"/><linearGradient id="linear-gradient-4" x1="35" y1="41" x2="53" y2="41" xlink:href="#linear-gradient"/><linearGradient id="linear-gradient-5" x1="12" y1="26.5" x2="38" y2="26.5" gradientUnits="userSpaceOnUse"><stop offset="0" stop-color="#fe9661"/><stop offset="1" stop-color="#ffb369"/></linearGradient></defs><title>Analytics</title><g id="Analytics"><path class="cls-1" d="M32,40a12,12,0,0,0,1.05,6,11.85,11.85,0,0,0,2.42,3.49A12,12,0,0,0,46,52.83V58a2,2,0,0,1-2,2H6a1.94,1.94,0,0,1-2-1.87V5.87A1.94,1.94,0,0,1,6,4H36v7.93A2,2,0,0,0,38,14h8V29.17A12,12,0,0,0,32,40Z"/><path class="cls-2" d="M46,14H38a2,2,0,0,1-2-2.07V4Z"/><path class="cls-2" d="M32,41H13a1,1,0,0,1,0-2H32a1,1,0,0,1,0,2Z"/><path class="cls-2" d="M33.09,47H13a1,1,0,0,1,0-2H33.09a1,1,0,0,1,0,2Z"/><path class="cls-2" d="M37,53H13a1,1,0,0,1,0-2H37a1,1,0,0,1,0,2Z"/><path class="cls-3" d="M59.41,56.72h0a2,2,0,0,1-2.83,0l-6.66-6.66,2.83-2.83,6.66,6.66A2,2,0,0,1,59.41,56.72Z"/><path class="cls-4" d="M52.49,49.49a12,12,0,0,1-17,0A11.85,11.85,0,0,1,33.09,46a12,12,0,1,1,19.4,3.49Z"/><circle class="cls-5" cx="44" cy="41" r="9"/><path class="cls-6" d="M37.92,18.62a1,1,0,0,0-.54-.54A1,1,0,0,0,37,18H33a1,1,0,0,0,0,2h1.59L26.5,28.09l-3.79-3.8a1,1,0,0,0-1.42,0l-9,9a1,1,0,0,0,0,1.42,1,1,0,0,0,1.42,0L22,26.41l3.79,3.8a1,1,0,0,0,1.42,0L36,21.41V23a1,1,0,0,0,2,0V19A1,1,0,0,0,37.92,18.62Z"/></g></svg>