<?xml version="1.0" encoding="utf-8"?>
<!-- Generator: Adobe Illustrator 24.3.0, SVG Export Plug-In . SVG Version: 6.00 Build 0)  -->
<svg version="1.1" id="Layer_1" xmlns="http://www.w3.org/2000/svg" xmlns:xlink="http://www.w3.org/1999/xlink" x="0px" y="0px"
	 viewBox="0 0 425 425" enable-background="new 0 0 425 425" xml:space="preserve">
<g>
	<linearGradient id="SVGID_1_" gradientUnits="userSpaceOnUse" x1="125.2381" y1="289.7731" x2="2133.2363" y2="-802.2241">
		<stop  offset="0" style="stop-color:#00C9FF"/>
		<stop  offset="1" style="stop-color:#3B72DE"/>
	</linearGradient>
	<path fill="url(#SVGID_1_)" d="M328.529,234.29c-2.695,0-4.881,2.186-4.881,4.882v3.596H101.352v-32.076
		c0-2.696-2.186-4.882-4.881-4.882c-2.696,0-4.881,2.186-4.881,4.882v47.683c0,12.901,10.497,23.396,23.398,23.396h92.631v17.126
		h-56.294c-2.696,0-4.881,2.186-4.881,4.881c0,2.695,2.185,4.881,4.881,4.881h122.35c2.696,0,4.881-2.186,4.881-4.881
		c0-2.695-2.185-4.881-4.881-4.881h-56.295V281.77h92.63c12.902,0,23.399-10.495,23.399-23.396v-19.202
		C333.41,236.475,331.225,234.29,328.529,234.29z M310.011,272.008H114.988c-7.519,0-13.636-6.117-13.636-13.635v-5.845h222.296
		v5.845C323.648,265.891,317.531,272.008,310.011,272.008z"/>
	<linearGradient id="SVGID_2_" gradientUnits="userSpaceOnUse" x1="139.8167" y1="316.5833" x2="2147.8364" y2="-775.4255">
		<stop  offset="0" style="stop-color:#00C9FF"/>
		<stop  offset="1" style="stop-color:#3B72DE"/>
	</linearGradient>
	<path fill="url(#SVGID_2_)" d="M328.529,199.337c-2.695,0-4.881,2.186-4.881,4.882v19.477c0,2.695,2.186,4.881,4.881,4.881
		c2.696,0,4.881-2.186,4.881-4.881v-19.477C333.41,201.523,331.225,199.337,328.529,199.337z"/>
	<linearGradient id="SVGID_3_" gradientUnits="userSpaceOnUse" x1="90.135" y1="225.2244" x2="2098.1274" y2="-866.7698">
		<stop  offset="0" style="stop-color:#00C9FF"/>
		<stop  offset="1" style="stop-color:#3B72DE"/>
	</linearGradient>
	<path fill="url(#SVGID_3_)" d="M310.011,116.342H114.989c-12.902,0-23.399,10.495-23.399,23.397v20.284
		c0,2.695,2.186,4.881,4.881,4.881c2.696,0,4.881-2.186,4.881-4.881v-9.015h222.296v37.612c0,2.695,2.186,4.881,4.881,4.881
		c2.696,0,4.881-2.186,4.881-4.881V139.74C333.41,126.837,322.914,116.342,310.011,116.342z M101.352,141.247v-1.507
		c0-7.518,6.118-13.636,13.637-13.636h195.023c7.52,0,13.637,6.117,13.637,13.636v1.507H101.352z"/>
	<linearGradient id="SVGID_4_" gradientUnits="userSpaceOnUse" x1="74.8484" y1="197.1147" x2="2082.8281" y2="-894.8724">
		<stop  offset="0" style="stop-color:#00C9FF"/>
		<stop  offset="1" style="stop-color:#3B72DE"/>
	</linearGradient>
	<path fill="url(#SVGID_4_)" d="M96.471,199.976c2.696,0,4.881-2.186,4.881-4.882v-19.477c0-2.695-2.186-4.881-4.881-4.881
		c-2.695,0-4.881,2.186-4.881,4.881v19.477C91.59,197.79,93.775,199.976,96.471,199.976z"/>
	<linearGradient id="SVGID_5_" gradientUnits="userSpaceOnUse" x1="102.3199" y1="247.631" x2="2110.3193" y2="-844.3668">
		<stop  offset="0" style="stop-color:#00C9FF"/>
		<stop  offset="1" style="stop-color:#3B72DE"/>
	</linearGradient>
	<path fill="url(#SVGID_5_)" d="M191.64,234.181c0.842,0,1.685-0.218,2.44-0.654l52.383-30.243c1.51-0.872,2.44-2.483,2.44-4.228
		c0-1.743-0.93-3.355-2.44-4.227l-52.383-30.243c-1.51-0.873-3.371-0.873-4.881,0c-1.51,0.872-2.441,2.481-2.441,4.227V229.3
		c0,1.744,0.931,3.355,2.441,4.227C189.955,233.963,190.797,234.181,191.64,234.181z M196.521,177.267l37.74,21.789l-37.74,21.789
		V177.267z"/>
</g>
</svg>
