<svg xmlns="http://www.w3.org/2000/svg" xmlns:xlink="http://www.w3.org/1999/xlink" viewBox="0 0 64 64"><defs><style>.cls-1{fill:url(#linear-gradient);}.cls-2{fill:url(#linear-gradient-2);}.cls-3{fill:#ffb369;}.cls-4{fill:url(#linear-gradient-3);}.cls-5{fill:url(#linear-gradient-4);}</style><linearGradient id="linear-gradient" x1="32" y1="55" x2="32" y2="48" gradientUnits="userSpaceOnUse"><stop offset="0" stop-color="#54a5ff"/><stop offset="1" stop-color="#8ad3fe"/></linearGradient><linearGradient id="linear-gradient-2" x1="8.58" y1="50.42" x2="55.42" y2="3.58" gradientUnits="userSpaceOnUse"><stop offset="0" stop-color="#d3e6f5"/><stop offset="1" stop-color="#f0f7fc"/></linearGradient><linearGradient id="linear-gradient-3" x1="18" y1="57.5" x2="46" y2="57.5" xlink:href="#linear-gradient"/><linearGradient id="linear-gradient-4" x1="29" y1="13" x2="35" y2="13" xlink:href="#linear-gradient-2"/></defs><title>Internet Banking</title><g id="Internet_Banking" data-name="Internet Banking"><polygon class="cls-1" points="25 48 39 48 41 55 23 55 25 48"/><path class="cls-2" d="M53.78,5H10.22A7.12,7.12,0,0,0,3,12V42a7.12,7.12,0,0,0,7.22,7H53.78A7.12,7.12,0,0,0,61,42V12A7.12,7.12,0,0,0,53.78,5Z"/><path class="cls-3" d="M32,4h0a2.41,2.41,0,0,0-1.71.71L16,19H48L33.71,4.71A2.41,2.41,0,0,0,32,4Z"/><path class="cls-3" d="M16,19H48a0,0,0,0,1,0,0v3a2,2,0,0,1-2,2H18a2,2,0,0,1-2-2V19A0,0,0,0,1,16,19Z"/><rect class="cls-3" x="30" y="24" width="4" height="12"/><rect class="cls-3" x="41" y="24" width="4" height="12"/><rect class="cls-3" x="19" y="24" width="4" height="12"/><path class="cls-3" d="M16,36H48a2,2,0,0,1,2,2v3a0,0,0,0,1,0,0H14a0,0,0,0,1,0,0V38A2,2,0,0,1,16,36Z"/><circle class="cls-3" cx="32" cy="13" r="2"/><path class="cls-4" d="M23,55H41a5,5,0,0,1,5,5v0a0,0,0,0,1,0,0H18a0,0,0,0,1,0,0v0A5,5,0,0,1,23,55Z"/><circle class="cls-5" cx="32" cy="13" r="3"/></g></svg>