<?xml version="1.0" standalone="no"?><!DOCTYPE svg PUBLIC "-//W3C//DTD SVG 1.1//EN" "http://www.w3.org/Graphics/SVG/1.1/DTD/svg11.dtd"><svg t="1771912997622" class="icon" viewBox="0 0 1024 1024" version="1.1" xmlns="http://www.w3.org/2000/svg" p-id="24879" xmlns:xlink="http://www.w3.org/1999/xlink" width="200" height="200"><path d="M489.5232 346.4192a122.368 122.368 0 1 0-122.368 122.368c28.0576 0 76.8-2.816 107.52-3.6864a15.36 15.36 0 0 0 14.8992-15.36zM489.5232 729.2928a122.368 122.368 0 1 1-122.368-122.368c28.0576 0 76.8 2.816 107.52 3.6864a15.36 15.36 0 0 1 14.8992 15.36zM613.7344 352a122.368 122.368 0 1 1 122.368 122.368c-28.1088 0-76.8-2.816-107.52-3.6864a15.36 15.36 0 0 1-14.8992-15.36zM630.6816 719.0528a122.368 122.368 0 1 0 122.368-122.3168c-28.1088 0-76.8 2.7648-107.52 3.6352a15.36 15.36 0 0 0-14.8992 15.36z" fill="#FCA659" p-id="24880"></path><path d="M316.5184 482.7136a185.1904 185.1904 0 0 1-134.9632-58.6752 184.32 184.32 0 0 1 260.864-260.864 185.2928 185.2928 0 0 1 58.6752 134.9632v138.5472a40.96 40.96 0 0 1-39.8848 40.96c-15.36 0.4608-34.0992 1.2288-53.8624 2.0992-32.9216 1.536-66.9696 2.9696-90.8288 2.9696z m0-328.192c-3.4304 0-6.8608 0-10.24 0.3584a143.36 143.36 0 0 0-94.7712 241.2032 142.1824 142.1824 0 0 0 105.0112 45.6704c22.9888 0 56.576-1.4336 89.088-2.816 19.9168-0.8704 38.7072-1.6896 54.4256-2.1504V298.1376a143.6672 143.6672 0 0 0-143.36-143.36zM316.672 889.8048q-6.6048 0-13.2096-0.4608a184.32 184.32 0 0 1 13.056-368.64c23.8592 0 57.9072 1.4336 90.8288 2.8672 19.7632 0.8192 38.4512 1.6384 53.8624 2.048a40.96 40.96 0 0 1 39.8848 40.96v138.5984a185.1904 185.1904 0 0 1-58.6752 134.912 182.5792 182.5792 0 0 1-125.7472 49.7152z m0-328.192a143.6672 143.6672 0 0 0-143.36 153.856A143.616 143.616 0 0 0 414.72 810.24a142.2848 142.2848 0 0 0 45.6704-105.0112v-138.5984c-15.7696-0.5632-34.6112-1.3312-54.528-2.2016-32.768-1.2288-66.3552-2.816-89.344-2.816zM724.3264 482.7136c-23.9104 0-57.9584-1.4848-90.88-2.8672-19.7632-0.8704-38.4512-1.6384-53.8624-2.0992a40.96 40.96 0 0 1-39.8336-40.96V298.1376a185.2416 185.2416 0 0 1 58.624-134.9632 184.32 184.32 0 0 1 260.864 260.864 185.1904 185.1904 0 0 1-134.912 58.6752z m0-328.192a143.36 143.36 0 0 0-143.36 143.616v138.5472c15.7696 0.5632 34.56 1.3824 54.528 2.2528 32.4608 1.3824 66.048 2.816 89.088 2.816a143.6672 143.6672 0 0 0 143.36-153.856 143.8208 143.8208 0 0 0-133.12-133.12c-3.7376-0.1536-7.168-0.256-10.5984-0.256zM724.1216 889.8048a182.5792 182.5792 0 0 1-125.7472-49.664 185.1392 185.1392 0 0 1-58.624-134.912v-138.5984a40.96 40.96 0 0 1 39.8336-40.96c15.36-0.4096 34.0992-1.2288 53.8624-2.048 32.9216-1.4336 66.9696-2.8672 90.88-2.8672a185.1392 185.1392 0 0 1 134.912 58.624 183.04 183.04 0 0 1 49.2032 139.008A184.9344 184.9344 0 0 1 737.28 889.344c-4.352 0.3072-8.7552 0.4608-13.1584 0.4608z m0-328.192c-23.04 0-56.6272 1.4336-89.1392 2.816-19.9168 0.8704-38.7072 1.6384-54.4256 2.0992v138.7008a143.36 143.36 0 0 0 153.6 143.36A143.616 143.616 0 0 0 829.44 607.232a142.2336 142.2336 0 0 0-105.1136-45.6192z" fill="#55524F" p-id="24881"></path></svg>