<?xml version="1.0" standalone="no"?><!DOCTYPE svg PUBLIC "-//W3C//DTD SVG 1.1//EN" "http://www.w3.org/Graphics/SVG/1.1/DTD/svg11.dtd"><svg t="1771913322397" class="icon" viewBox="0 0 1024 1024" version="1.1" xmlns="http://www.w3.org/2000/svg" p-id="29903" xmlns:xlink="http://www.w3.org/1999/xlink" width="56" height="56"><path d="M811.418 125.952H699.494a20.48 20.48 0 0 0-20.48 20.48v210.534a20.48 20.48 0 0 0 20.48 20.48h111.924a20.122 20.122 0 0 0 9.574-2.406 20.48 20.48 0 0 0 10.906-17.971V146.432a20.48 20.48 0 0 0-20.48-20.48z m-111.924 69.734v-49.254h111.924v161.126z" fill="#EA6381" p-id="29904"></path><path d="M811.418 105.472H699.494a40.96 40.96 0 0 0-40.96 40.96v66.202l40.96 40.96V146.432h111.924v210.534h-8.448l8.499 8.5 24.371 24.37a40.96 40.96 0 0 0 16.589-32.87V146.432a40.96 40.96 0 0 0-41.011-40.96z" fill="#692F76" p-id="29905"></path><path d="M811.418 146.432l-0.052 161.126-111.872-111.872v-49.254h111.924z" fill="#EA6381" p-id="29906"></path><path d="M811.366 292.198L699.494 180.326v15.36l111.872 111.872 0.052-161.126-0.052 145.766z" fill="#CC475F" p-id="29907"></path><path d="M699.494 146.432h111.924v15.36H699.494z" fill="#F093AA" p-id="29908"></path><path d="M749.978 400.486H270.899a81.92 81.92 0 0 0-81.92 81.92v347.75a81.92 81.92 0 0 0 81.92 81.92h479.079a81.92 81.92 0 0 0 81.92-81.92v-347.75a81.92 81.92 0 0 0-81.92-81.92z m61.44 429.67a61.44 61.44 0 0 1-61.44 61.44H270.899a61.44 61.44 0 0 1-61.44-61.44V534.58h601.959z" fill="#F6D95F" p-id="29909"></path><path d="M749.978 380.006H270.899a102.4 102.4 0 0 0-102.4 102.4v347.75a102.4 102.4 0 0 0 102.4 102.4h479.079a102.4 102.4 0 0 0 102.4-102.4v-347.75a102.4 102.4 0 0 0-102.4-102.4z m61.44 450.15a61.44 61.44 0 0 1-61.44 61.44H270.899a61.44 61.44 0 0 1-61.44-61.44v-347.75a61.44 61.44 0 0 1 61.44-61.44h479.079a61.44 61.44 0 0 1 61.44 61.44z" fill="#692F76" p-id="29910"></path><path d="M811.418 534.58v295.577a61.44 61.44 0 0 1-61.44 61.44H270.899a61.44 61.44 0 0 1-61.44-61.44V534.579z" fill="#F6D95F" p-id="29911"></path><path d="M749.978 876.237H270.899a61.44 61.44 0 0 1-61.44-61.44v15.36a61.44 61.44 0 0 0 61.44 61.44h479.079a61.44 61.44 0 0 0 61.44-61.44v-15.36a61.44 61.44 0 0 1-61.44 61.44z" fill="#EAB943" p-id="29912"></path><path d="M209.46 534.58h601.958v15.36H209.459z" fill="#FFFFFF" p-id="29913"></path><path d="M873.114 398.285L848.69 373.76l-37.325-37.325-152.832-152.73-90.214-90.163a81.92 81.92 0 0 0-115.866 0l-304.69 304.743a81.92 81.92 0 0 0 0 115.814h725.35a81.92 81.92 0 0 0 0-115.814z m-9.216 95.334H156.979a61.85 61.85 0 0 1 5.12-80.896l304.896-304.742a61.44 61.44 0 0 1 87.04 0l145.613 145.613 103.424 103.372 8.5 8.5 24.37 24.37 22.887 22.887a61.747 61.747 0 0 1 5.12 80.896z" fill="#F6D95F" p-id="29914"></path><path d="M887.603 384l-55.705-55.91-20.48-20.48-111.924-111.924L582.861 79.053a102.4 102.4 0 0 0-144.794 0L133.12 384a102.4 102.4 0 0 0 0 144.794l5.99 5.99h742.4l5.99-5.99a102.4 102.4 0 0 0 0-144.794z m-23.705 109.824H156.979a61.85 61.85 0 0 1 5.12-80.896l304.896-304.947a61.44 61.44 0 0 1 87.04 0l145.613 145.613 103.424 103.372 8.5 8.5 24.37 24.37 22.887 22.887a61.747 61.747 0 0 1 5.12 80.896z" fill="#692F76" p-id="29915"></path><path d="M876.544 456.192a61.03 61.03 0 0 1-12.646 37.427H156.979a61.85 61.85 0 0 1 5.12-80.896l304.896-304.742a61.44 61.44 0 0 1 87.04 0l145.613 145.613 103.424 103.372 8.5 8.5 24.37 24.37 22.887 22.887a61.133 61.133 0 0 1 17.715 43.469z" fill="#F6D95F" p-id="29916"></path><path d="M863.898 478.26H156.979a60.518 60.518 0 0 1-12.083-29.697 62.925 62.925 0 0 0-0.512 7.629 60.98 60.98 0 0 0 12.595 37.427h706.919a61.03 61.03 0 0 0 12.646-37.427 63.795 63.795 0 0 0-0.512-7.68 60.57 60.57 0 0 1-12.134 29.747z" fill="#EAB943" p-id="29917"></path><path d="M162.253 428.083l304.742-304.742a61.44 61.44 0 0 1 87.04 0l145.613 145.613 103.424 103.372 8.5 8.5 24.37 24.37 22.887 22.887a60.877 60.877 0 0 1 17.357 35.84 63.078 63.078 0 0 0 0.512-7.68 61.133 61.133 0 0 0-17.87-43.469l-22.886-22.886-24.37-24.371-8.5-8.5-103.424-103.372L553.882 107.98a61.44 61.44 0 0 0-87.04 0l-304.59 304.742a61.133 61.133 0 0 0-17.868 43.469 64.614 64.614 0 0 0 0.512 7.731 60.877 60.877 0 0 1 17.357-35.84z" fill="#FFFFFF" p-id="29918"></path><path d="M583.22 636.262H437.708a20.48 20.48 0 0 0-20.48 20.48v165.53a20.48 20.48 0 0 0 20.48 20.48h145.51a20.48 20.48 0 0 0 20.48-20.48v-165.53a20.48 20.48 0 0 0-20.48-20.48z m0 186.01H437.708v-165.53h145.51z" fill="#EA6381" p-id="29919"></path><path d="M583.22 615.782H437.708a40.96 40.96 0 0 0-40.96 40.96v165.53a40.96 40.96 0 0 0 40.96 40.96h145.51a40.96 40.96 0 0 0 40.96-40.96v-165.53a40.96 40.96 0 0 0-40.96-40.96z m-145.511 206.49v-165.53h145.51v165.53z" fill="#692F76" p-id="29920"></path><path d="M437.658 656.742h145.51v165.53h-145.51z" fill="#EA6381" p-id="29921"></path><path d="M583.168 806.912h-145.51v15.36h145.51l0.051-165.53-0.051 150.17z" fill="#CC475F" p-id="29922"></path><path d="M390.758 298.086l105.114-105.164a20.48 20.48 0 0 1 29.184 0L630.17 298.086a20.48 20.48 0 0 1-14.592 35.175H405.35a20.48 20.48 0 0 1-14.592-35.175z" fill="#EB637C" p-id="29923"></path><path d="M437.709 656.742h145.51v15.36H437.71z" fill="#F093AA" p-id="29924"></path><path d="M349.44 652.8h-87.552a25.6 25.6 0 0 1 0-51.2h87.552a25.6 25.6 0 0 1 0 51.2z m409.19 0h-87.552a25.6 25.6 0 0 1 0-51.2h87.552a25.6 25.6 0 0 1 0 51.2z" fill="#F3A175" p-id="29925"></path></svg>