<?xml version="1.0" standalone="no"?><!DOCTYPE svg PUBLIC "-//W3C//DTD SVG 1.1//EN" "http://www.w3.org/Graphics/SVG/1.1/DTD/svg11.dtd"><svg t="1771905628993" class="icon" viewBox="0 0 1024 1024" version="1.1" xmlns="http://www.w3.org/2000/svg" p-id="10379" xmlns:xlink="http://www.w3.org/1999/xlink" width="200" height="200"><path d="M506 510.6c0.6-0.6 1.5-0.6 2.1 0l3.5 3.5c0.6 0.6 0.6 1.5 0 2.1-0.6 0.6-1.5 0.6-2.1 0l-3.5-3.5c-0.6-0.6-0.6-1.5 0-2.1z" fill="#FFFFFF" p-id="10380"></path><path d="M509.5 514.1l6.4-6.4c0.6-0.6 1.5-0.6 2.1 0 0.6 0.6 0.6 1.5 0 2.1l-6.4 6.4c-0.6 0.6-1.5 0.6-2.1 0-0.6-0.5-0.6-1.4 0-2.1z" fill="#FFFFFF" p-id="10381"></path><path d="M141.8 958.5c-23.2 0-42.1-18.9-42.1-42.1V742.2c0-23.2 18.9-42.1 42.1-42.1h253c0.6 0 1.2-0.4 1.4-0.9 0.2-0.6 0.1-1.2-0.3-1.6L174.3 476.1c-16.4-16.4-16.4-43.1 0-59.5L513.1 77.8c7.9-7.9 18.5-12.3 29.7-12.3s21.8 4.4 29.7 12.3L849.7 355c16.4 16.4 16.4 43.1 0 59.5L566.6 697.6c-0.4 0.4-0.6 1.1-0.3 1.6s0.8 0.9 1.4 0.9h314.6c23.2 0 42.1 18.9 42.1 42.1v174.2c0 23.2-18.9 42.1-42.1 42.1H141.8z m313.4-434.6l0.6 0.9c0.3 0.6 0.7 1.2 1.3 1.8 6.4 6.2 14.8 9.6 23.7 9.6 9.4 0 18.1-3.7 24.6-10.4L644 387.2l0.8-0.8c13.1-13.6 12.7-35.2-0.8-48.3-6.4-6.2-14.8-9.6-23.7-9.6-9.4 0-18.1 3.7-24.6 10.4L481.2 453.2l-52.8-52.8c-6.5-6.5-15-10-24.2-10-9.1 0-17.7 3.6-24.2 10-13.3 13.3-13.3 35 0 48.3l75.2 75.2z" fill="#FF6633" p-id="10382"></path><path d="M542.8 67c10.8 0 21 4.2 28.7 11.9l277.2 277.2c15.8 15.8 15.8 41.5 0 57.3L565.5 696.5c-0.9 0.9-1.1 2.1-0.7 3.3 0.5 1.1 1.6 1.9 2.8 1.9h314.6c22.4 0 40.6 18.2 40.6 40.6v174.2c0 22.4-18.2 40.6-40.6 40.6H141.8c-22.4 0-40.6-18.2-40.6-40.6V742.2c0-22.4 18.2-40.6 40.6-40.6h253c1.2 0 2.3-0.7 2.8-1.9 0.5-1.1 0.2-2.4-0.7-3.3L175.3 475c-15.8-15.8-15.8-41.5 0-57.3L514.1 78.9C521.8 71.2 532 67 542.8 67m51.8 270.8L481.2 451.1l-51.8-51.8c-6.7-6.7-15.7-10.4-25.2-10.4s-18.5 3.7-25.2 10.4c-13.9 13.9-13.9 36.5 0 50.4l75.1 75.1c0.1 0.2 0.3 0.4 0.4 0.6 0.4 0.6 0.8 1.4 1.5 2.1 6.7 6.5 15.5 10 24.8 10 9.8 0 18.9-3.9 25.6-10.9L645 388.2l0.9-0.9c6.6-6.9 10.2-15.9 10-25.4-0.2-9.5-4-18.4-10.9-25-6.7-6.5-15.5-10-24.8-10-9.8 0-18.9 3.8-25.6 10.9M542.8 64c-11.1 0-22.3 4.3-30.8 12.8L173.2 415.5c-17 17-17 44.6 0 61.6l221.5 221.5h-253c-24.1 0-43.6 19.5-43.6 43.6v174.2c0 24.1 19.5 43.6 43.6 43.6h740.5c24.1 0 43.6-19.5 43.6-43.6V742.2c0-24.1-19.5-43.6-43.6-43.6H567.7l283.1-283.1c17-17 17-44.6 0-61.6L573.6 76.8A43.56 43.56 0 0 0 542.8 64z m-61.6 391.4l115.5-115.5c6.4-6.6 15-10 23.5-10 8.2 0 16.3 3 22.7 9.2 13 12.5 13.3 33.2 0.8 46.2l-0.8 0.8-138.6 138.5c-6.4 6.6-15 10-23.5 10-8.2 0-16.3-3-22.7-9.2-0.8-0.8-1.1-1.8-1.8-2.6l-75.2-75.2a32.592 32.592 0 0 1 0-46.2c6.4-6.4 14.7-9.6 23.1-9.6s16.7 3.2 23.1 9.6l53.9 54z" fill="#FF6633" p-id="10383"></path></svg>