<?xml version="1.0" standalone="no"?><!DOCTYPE svg PUBLIC "-//W3C//DTD SVG 1.1//EN" "http://www.w3.org/Graphics/SVG/1.1/DTD/svg11.dtd"><svg t="1771905537884" class="icon" viewBox="0 0 1117 1024" version="1.1" xmlns="http://www.w3.org/2000/svg" p-id="9319" xmlns:xlink="http://www.w3.org/1999/xlink" width="218.1640625" height="200"><path d="M1115.229091 509.300364c0-79.872-106.030545-138.565818-272.616727-168.634182 53.992727-158.021818 56.645818-283.927273-11.264-318.976-64.558545-33.373091-167.563636 27.927273-274.152728 147.642182C449.210182 44.869818 343.086545-18.292364 276.154182 25.6c-62.789818 41.239273-59.671273 162.210909-7.261091 316.509091C105.332364 373.387636 3.351273 433.105455 3.909818 511.022545c0.558545 70.749091 99.607273 130.466909 260.840727 162.909091-51.293091 154.996364-51.386182 278.202182 14.987637 318.370909 66.792727 40.494545 168.866909-24.669091 274.664727-149.224727 107.799273 124.276364 213.597091 187.810909 280.296727 150.621091 70.609455-39.330909 66.001455-162.909091 11.729455-318.882909 160.954182-31.418182 268.753455-90.112 268.753454-165.469091z m-70.097455 23.877818c-21.085091 52.270545-87.970909 80.523636-143.732363 97.745454-21.131636 6.981818-66.280727 25.925818-75.217455-2.699636-10.24-32.209455 32.302545-33.512727 52.410182-39.842909 39.330909-12.753455 75.170909-28.951273 104.261818-51.618909 7.540364-6.283636 22.993455-18.245818 19.409455-35.234909-7.261091-34.583273-68.608-55.854545-100.864-68.468364-113.384727-44.218182-258.839273-47.569455-414.114909-47.569454-15.220364 29.649455-34.071273 58.461091-51.2 88.110545-5.678545 9.914182-14.848 20.619636-16.849455 33.233455 18.897455 33.233455 37.655273 66.792727 56.413091 100.352 51.525818 82.804364 111.150545 170.309818 185.669818 230.446545 16.756364 13.312 87.365818 78.754909 120.32 54.458182 22.341818-17.035636 18.106182-83.828364 11.170909-116.736-21.457455-101.701818-56.785455-185.530182-97.978182-266.612364-9.960727-19.362909-57.716364-85.829818-22.807272-98.816 31.092364-11.915636 68.608 82.850909 78.196363 104.448 35.002182 80.523636 68.608 158.254545 89.367273 256.372364 10.984727 52.456727 5.957818 117.015273-18.757818 148.898909-41.565091 53.853091-124.648727 6.981818-159.976727-18.944-82.757818-60.788364-149.690182-149.550545-205.079273-237.986909-20.107636-32.581818-61.998545-104.401455-61.998546-104.401455s-1.349818 0.325818-2.001454 0.651637c-11.869091 27.601455-23.133091 55.854545-34.955636 83.456-19.083636 47.895273-30.068364 97.745455-40.587637 154.018909-6.888727 34.210909-3.909818 91.322182 21.457455 99.653818 42.216727 13.637818 116.410182-59.252364 135.866182-78.848 11.264-10.565818 34.909091-34.909091 51.153454-12.288 17.221818 23.877818-18.106182 48.453818-30.952727 58.833454-32.581818 26.251636-95.976727 94.394182-160.861091 79.732364-54.411636-12.288-76.194909-79.173818-63.022546-151.970909 13.218909-73.774545 30.72-137.960727 56.413091-199.121455 13.218909-30.301091 26.391273-59.810909 39.563637-89.460363-15.546182-28.253091-31.045818-66.885818-44.218182-98.769455-62.370909 5.073455-128.605091 30.301091-172.171636 57.902546-13.172364 9.029818-44.544 26.018909-35.607273 51.572363 12.474182 35.514182 83.781818 60.834909 121.623273 73.076364 18.199273 6.050909 57.111273 6.981818 51.2 35.281455-5.957818 28.299636-39.237818 17.92-61.34691 11.264-52.410182-16.663273-110.731636-38.260364-141.079272-77.824-27.741091-36.305455-19.083636-73.216 5.585454-104.401455 43.426909-54.877091 135.819636-75.264 215.598546-92.485818v-0.698182C283.927273 300.683636 245.387636 167.424 284.625455 102.539636c13.870545-22.621091 30.394182-29.277091 55.761454-35.933091 74.845091-1.675636 123.997091 49.896727 162.210909 88.110546 11.170909 10.891636 48.779636 41.192727 21.410909 60.834909-22.434909 15.825455-41.192727-13.637818-51.153454-23.691636-25.693091-25.553455-54.737455-49.803636-88.669091-66.420364-9.867636-5.12-28.951273-15.36-45.149091-9.728-19.549091 6.656-28.392727 47.197091-23.458909 77.870545 9.960727 59.438545 21.783273 107.333818 36.957091 157.230546 36.305455-3.723636 72.517818-6.981818 109.149091-10.379636 12.567273-24.203636 31.278545-45.149091 47.150545-66.420364 49.477818-67.165091 106.216727-135.959273 178.082909-180.224 39.563636-24.576 103.191273-43.613091 137.169455 0.651636 29.370182 38.632727 23.458909 121.111273 10.24 173.614546-4.887273 20.014545-6.516364 53.248-35.607273 44.590545-21.131636-6.330182-16.104727-29.975273-11.170909-50.269091 8.285091-33.233455 25.134545-118.923636-3.909818-142.242909-24.669091-19.735273-71.819636 14.196364-86.667637 24.529455-54.085818 37.655273-97.652364 87.877818-137.216 140.381091-12.846545 16.896-28.253091 33.233455-38.539636 52.130909 170.170182-2.606545 333.032727 13.405091 447.069091 71.866182 36.631273 19.083636 102.865455 60.509091 76.846545 124.136727zM371.2 398.103273c7.819636 18.245818 16.104727 35.933091 24.343273 54.178909v-2.001455c11.170909-20.293818 23.133091-39.889455 35.002182-59.810909 0 0-48.174545-0.698182-59.345455 7.633455z m185.111273 42.123636c53.620364-1.861818 55.528727 69.073455 10.845091 78.103273-30.952727 6.376727-55.854545-31.557818-39.424-58.926546 6.562909-10.472727 16.290909-13.498182 28.578909-19.176727z" fill="#FB9629" p-id="9320"></path></svg>