<svg xmlns="http://www.w3.org/2000/svg" xmlns:xlink="http://www.w3.org/1999/xlink" viewBox="0 0 64 64"><defs><style>.cls-1{fill:url(#linear-gradient);}.cls-2{fill:url(#linear-gradient-2);}.cls-3{fill:url(#linear-gradient-3);}.cls-4{fill:url(#linear-gradient-4);}.cls-5{fill:url(#linear-gradient-5);}.cls-6{fill:url(#linear-gradient-6);}.cls-7{fill:#4795ea;}.cls-8{fill:url(#linear-gradient-7);}.cls-9{fill:url(#linear-gradient-8);}.cls-10{fill:url(#linear-gradient-9);}</style><linearGradient id="linear-gradient" x1="32.01" y1="36" x2="32.01" y2="4" gradientUnits="userSpaceOnUse"><stop offset="0" stop-color="#54a5ff"/><stop offset="1" stop-color="#8ad3fe"/></linearGradient><linearGradient id="linear-gradient-2" x1="48" y1="60" x2="48" y2="54" gradientUnits="userSpaceOnUse"><stop offset="0" stop-color="#fe9661"/><stop offset="1" stop-color="#ffb369"/></linearGradient><linearGradient id="linear-gradient-3" x1="51" y1="54" x2="51" y2="48" xlink:href="#linear-gradient-2"/><linearGradient id="linear-gradient-4" x1="29" y1="48" x2="29" y2="42" xlink:href="#linear-gradient-2"/><linearGradient id="linear-gradient-5" x1="30" x2="30" xlink:href="#linear-gradient-2"/><linearGradient id="linear-gradient-6" x1="27" y1="54" x2="27" y2="48" xlink:href="#linear-gradient-2"/><linearGradient id="linear-gradient-7" x1="29" y1="20" x2="35" y2="20" gradientUnits="userSpaceOnUse"><stop offset="0" stop-color="#d3e6f5"/><stop offset="1" stop-color="#f0f7fc"/></linearGradient><linearGradient id="linear-gradient-8" x1="50" y1="48" x2="50" y2="30" xlink:href="#linear-gradient-2"/><linearGradient id="linear-gradient-9" x1="46.88" y1="39" x2="53.13" y2="39" xlink:href="#linear-gradient-7"/></defs><title>Cash</title><g id="Cash"><path class="cls-1" d="M58.35,35.68a2.67,2.67,0,0,0,.77-.56,2.61,2.61,0,0,0,.37-.44l.15-.25A2.86,2.86,0,0,0,60,33c0-7.47,0-26.34,0-26.34A2.91,2.91,0,0,0,56.89,4H7.11A2.91,2.91,0,0,0,4,6.67V33.33A2.91,2.91,0,0,0,7.11,36H41.52"/><rect class="cls-2" x="39" y="54" width="18" height="6" rx="1.6"/><rect class="cls-3" x="42" y="48" width="18" height="6" rx="1.6"/><rect class="cls-4" x="20" y="42" width="18" height="6" rx="1.6"/><rect class="cls-5" x="21" y="54" width="18" height="6" rx="1.6"/><rect class="cls-6" x="18" y="48" width="18" height="6" rx="1.6"/><circle class="cls-7" cx="49" cy="20" r="3"/><circle class="cls-7" cx="14" cy="20" r="3"/><path class="cls-7" d="M4,4H9a3,3,0,0,1,3,3v5a0,0,0,0,1,0,0h0A8,8,0,0,1,4,4V4A0,0,0,0,1,4,4Z" transform="translate(0 16) rotate(-90)"/><path class="cls-7" d="M60,4h0a0,0,0,0,1,0,0V9a3,3,0,0,1-3,3H52a0,0,0,0,1,0,0v0a8,8,0,0,1,8-8Z" transform="translate(48 64) rotate(-90)"/><path class="cls-7" d="M53.86,30.87A8,8,0,0,1,60,28v5a2.85,2.85,0,0,1-.24,1.17,2.72,2.72,0,0,1-.64.95,2.67,2.67,0,0,1-.77.56"/><path class="cls-7" d="M12,28h0a0,0,0,0,1,0,0v5a3,3,0,0,1-3,3H4a0,0,0,0,1,0,0v0A8,8,0,0,1,12,28Z" transform="translate(40 24) rotate(90)"/><circle class="cls-7" cx="32" cy="20" r="9"/><path class="cls-8" d="M31.5,18H34a1,1,0,0,0,0-2H33V15a1,1,0,0,0-2,0v1.05A2.5,2.5,0,0,0,31.5,21h1a.5.5,0,0,1,0,1H30a1,1,0,0,0,0,2h1v1a1,1,0,0,0,2,0V24A2.5,2.5,0,0,0,32.5,19h-1a.5.5,0,0,1,0-1Z"/><path class="cls-9" d="M59,39a8.14,8.14,0,0,1-.06,1,8.82,8.82,0,0,1-.81,2.86,9,9,0,0,1-16.26,0A8.82,8.82,0,0,1,41.06,40,8.14,8.14,0,0,1,41,39a7,7,0,0,1,.07-1,2.3,2.3,0,0,1,0-.26A8.22,8.22,0,0,1,41.52,36a9,9,0,0,1,17,0,8.22,8.22,0,0,1,.42,1.71A7.84,7.84,0,0,1,59,39Z"/><path class="cls-10" d="M50.38,38h-1a.5.5,0,1,1,0-1h2.75a1,1,0,0,0,0-2H51V34a1,1,0,0,0-2,0v1a2.49,2.49,0,0,0,.38,5h1a.5.5,0,0,1,0,1H48.13a1,1,0,1,0,0,2H49v1a1,1,0,0,0,2,0V42.91A2.49,2.49,0,0,0,50.38,38Z"/></g></svg>