<?xml version="1.0" encoding="utf-8"?>
<!-- Generator: Adobe Illustrator 24.3.0, SVG Export Plug-In . SVG Version: 6.00 Build 0)  -->
<svg version="1.1" id="Layer_1" xmlns="http://www.w3.org/2000/svg" xmlns:xlink="http://www.w3.org/1999/xlink" x="0px" y="0px"
	 viewBox="0 0 425 425" enable-background="new 0 0 425 425" xml:space="preserve">
<g>
	<g>
		<linearGradient id="SVGID_1_" gradientUnits="userSpaceOnUse" x1="-1480.2072" y1="1089.2255" x2="527.7823" y2="-2.767">
			<stop  offset="0" style="stop-color:#00C9FF"/>
			<stop  offset="1" style="stop-color:#3B72DE"/>
		</linearGradient>
		<path fill="url(#SVGID_1_)" d="M328.528,224.891h-25.036c-2.695,0-4.881-2.186-4.881-4.881v-61.458H150.992l6.114,6.114
			c6.783,6.783,6.783,17.821,0,24.605c-3.287,3.287-7.657,5.097-12.304,5.097c-4.647,0-9.016-1.81-12.303-5.097l-35.814-35.816
			c-3.286-3.286-5.096-7.655-5.096-12.302c0-4.648,1.81-9.018,5.096-12.304L132.5,93.035c6.783-6.783,17.821-6.783,24.606,0
			c6.783,6.785,6.783,17.822,0,24.606l-6.114,6.113h79.773c2.696,0,4.882,2.185,4.882,4.881c0,2.696-2.186,4.882-4.882,4.882
			h-91.557c-1.976,0-3.754-1.189-4.51-3.014s-0.339-3.924,1.059-5.319l14.444-14.446c2.979-2.978,2.979-7.822,0.001-10.8
			c-2.979-2.978-7.823-2.977-10.801,0l-35.814,35.815c-1.441,1.442-2.236,3.359-2.236,5.4c0,2.039,0.795,3.957,2.236,5.399
			l35.814,35.815c1.443,1.442,3.36,2.236,5.4,2.236c2.039,0,3.958-0.794,5.4-2.237c2.977-2.978,2.977-7.821-0.001-10.8
			l-14.444-14.446c-1.397-1.396-1.814-3.494-1.059-5.318s2.534-3.013,4.51-3.013h164.283c2.696,0,4.882,2.185,4.882,4.88v61.458
			h15.273v-73.975c0-4.211-3.426-7.637-7.638-7.637h-34.577c-2.697,0-4.881-2.186-4.881-4.882c0-2.695,2.184-4.881,4.881-4.881
			h34.577c9.594,0,17.4,7.806,17.4,17.399v78.855C333.41,222.705,331.225,224.891,328.528,224.891z"/>
	</g>
	<g>
		<linearGradient id="SVGID_2_" gradientUnits="userSpaceOnUse" x1="-1487.0851" y1="1076.6205" x2="520.9358" y2="-15.389">
			<stop  offset="0" style="stop-color:#00C9FF"/>
			<stop  offset="1" style="stop-color:#3B72DE"/>
		</linearGradient>
		<path fill="url(#SVGID_2_)" d="M265.836,133.518h-19.476c-2.697,0-4.882-2.186-4.882-4.882c0-2.695,2.185-4.881,4.882-4.881
			h19.476c2.695,0,4.881,2.185,4.881,4.881C270.717,131.332,268.531,133.518,265.836,133.518z"/>
	</g>
	<g>
		<linearGradient id="SVGID_3_" gradientUnits="userSpaceOnUse" x1="-1443.4379" y1="1156.8468" x2="564.5565" y2="64.8518">
			<stop  offset="0" style="stop-color:#00C9FF"/>
			<stop  offset="1" style="stop-color:#3B72DE"/>
		</linearGradient>
		<path fill="url(#SVGID_3_)" d="M280.195,337.052c-4.456,0-8.911-1.696-12.303-5.087c-6.783-6.784-6.783-17.822,0-24.606
			l6.114-6.113H108.987c-9.593,0-17.397-7.805-17.397-17.398V204.99c0-2.695,2.186-4.881,4.881-4.881h25.034
			c2.697,0,4.881,2.186,4.881,4.881v61.457h52.524c2.695,0,4.881,2.185,4.881,4.881c0,2.696-2.186,4.881-4.881,4.881h-57.405
			c-2.695,0-4.881-2.185-4.881-4.881v-61.457h-15.272v73.976c0,4.21,3.426,7.636,7.636,7.636h176.804
			c1.974,0,3.754,1.19,4.508,3.014c0.756,1.824,0.338,3.924-1.057,5.319l-14.447,14.446c-2.977,2.977-2.977,7.822,0,10.8
			c2.978,2.977,7.823,2.977,10.801,0l35.814-35.815c1.443-1.442,2.237-3.359,2.237-5.399c0-2.041-0.794-3.958-2.236-5.4
			l-35.815-35.815c-1.442-1.442-3.361-2.236-5.4-2.236s-3.958,0.794-5.401,2.237c-2.976,2.977-2.976,7.822,0.001,10.8l14.447,14.445
			c1.395,1.397,1.812,3.496,1.057,5.319c-0.754,1.824-2.534,3.013-4.508,3.013h-56.289c-2.695,0-4.881-2.185-4.881-4.881
			c0-2.695,2.186-4.881,4.881-4.881h44.503l-6.112-6.112c-6.783-6.784-6.783-17.822-0.001-24.606
			c3.288-3.286,7.657-5.097,12.304-5.097c4.647,0,9.017,1.811,12.303,5.096l35.815,35.816c3.287,3.284,5.098,7.654,5.098,12.303
			c0,4.648-1.811,9.019-5.098,12.303l-35.815,35.815C289.106,335.356,284.65,337.052,280.195,337.052z"/>
	</g>
	<g>
		<linearGradient id="SVGID_4_" gradientUnits="userSpaceOnUse" x1="-1439.0024" y1="1164.9835" x2="568.9913" y2="72.9887">
			<stop  offset="0" style="stop-color:#00C9FF"/>
			<stop  offset="1" style="stop-color:#3B72DE"/>
		</linearGradient>
		<path fill="url(#SVGID_4_)" d="M214.07,276.209h-19.586c-2.695,0-4.881-2.185-4.881-4.881c0-2.695,2.186-4.881,4.881-4.881h19.586
			c2.697,0,4.881,2.185,4.881,4.881C218.951,274.025,216.768,276.209,214.07,276.209z"/>
	</g>
</g>
</svg>
