<svg xmlns="http://www.w3.org/2000/svg" xmlns:xlink="http://www.w3.org/1999/xlink" viewBox="0 0 64 64"><defs><style>.cls-1{fill:#ffb369;}.cls-2{fill:url(#linear-gradient);}.cls-3{fill:url(#linear-gradient-2);}.cls-4{fill:url(#linear-gradient-3);}.cls-5{fill:url(#linear-gradient-4);}.cls-6{fill:url(#linear-gradient-5);}.cls-7{fill:url(#linear-gradient-6);}.cls-8{fill:url(#linear-gradient-7);}.cls-9{fill:url(#linear-gradient-8);}</style><linearGradient id="linear-gradient" x1="16" y1="33" x2="16" y2="15" gradientUnits="userSpaceOnUse"><stop offset="0" stop-color="#fe9661"/><stop offset="1" stop-color="#ffb369"/></linearGradient><linearGradient id="linear-gradient-2" x1="21" y1="52" x2="21" y2="44" xlink:href="#linear-gradient"/><linearGradient id="linear-gradient-3" y1="44" y2="36" xlink:href="#linear-gradient"/><linearGradient id="linear-gradient-4" x1="12.88" y1="24" x2="19.13" y2="24" gradientUnits="userSpaceOnUse"><stop offset="0" stop-color="#d3e6f5"/><stop offset="1" stop-color="#f0f7fc"/></linearGradient><linearGradient id="linear-gradient-5" x1="27.67" y1="48.33" x2="60.36" y2="15.64" xlink:href="#linear-gradient-4"/><linearGradient id="linear-gradient-6" x1="28" y1="8" x2="60" y2="8" gradientUnits="userSpaceOnUse"><stop offset="0" stop-color="#54a5ff"/><stop offset="1" stop-color="#8ad3fe"/></linearGradient><linearGradient id="linear-gradient-7" y1="56" y2="56" xlink:href="#linear-gradient-6"/><linearGradient id="linear-gradient-8" x1="18" y1="60" x2="18" y2="52" xlink:href="#linear-gradient"/></defs><title>Time is money</title><g id="Time_is_money" data-name="Time is money"><path class="cls-1" d="M28,24a11.45,11.45,0,0,1-.08,1.33,12,12,0,0,1-23.84,0A11.45,11.45,0,0,1,4,24a10.28,10.28,0,0,1,.09-1.37c0-.12,0-.23,0-.35A11.51,11.51,0,0,1,4.69,20a12,12,0,0,1,22.62,0,11.51,11.51,0,0,1,.56,2.28A10.8,10.8,0,0,1,28,24Z"/><path class="cls-2" d="M25,24a8.14,8.14,0,0,1-.06,1,8.82,8.82,0,0,1-.81,2.86,9,9,0,0,1-16.26,0A8.82,8.82,0,0,1,7.06,25,8.14,8.14,0,0,1,7,24a7,7,0,0,1,.07-1,2.3,2.3,0,0,1,0-.26A8.22,8.22,0,0,1,7.52,21a9,9,0,0,1,17,0,8.22,8.22,0,0,1,.42,1.71A7.84,7.84,0,0,1,25,24Z"/><path class="cls-3" d="M33,46.14v3.72A2.15,2.15,0,0,1,31.3,52h0a3,3,0,0,1-.43,0H11.14A2.14,2.14,0,0,1,9,49.86V46.14A2.14,2.14,0,0,1,11.14,44H31A2.14,2.14,0,0,1,33,46.14Z"/><rect class="cls-4" x="4" y="36" width="24" height="8" rx="2.14"/><path class="cls-5" d="M16.38,23h-1a.5.5,0,0,1,0-1h2.75a1,1,0,0,0,0-2H17V19a1,1,0,0,0-2,0v1a2.49,2.49,0,0,0,.38,5h1a.5.5,0,0,1,0,1H14.13a1,1,0,0,0,0,2H15v1a1,1,0,0,0,2,0V27.91A2.49,2.49,0,0,0,16.38,23Z"/><path class="cls-6" d="M48.43,32A11.35,11.35,0,0,1,57,42.77v8.76a.48.48,0,0,1-.5.47h-25a.45.45,0,0,1-.2,0,2.15,2.15,0,0,0,1.7-2.1V46.14A2.14,2.14,0,0,0,31,44V42.77A11.35,11.35,0,0,1,39.57,32,11.35,11.35,0,0,1,31,21.23V12.47a.48.48,0,0,1,.5-.47h25a.48.48,0,0,1,.5.47v8.76A11.35,11.35,0,0,1,48.43,32Z"/><rect class="cls-7" x="28" y="4" width="32" height="8" rx="2"/><rect class="cls-8" x="28" y="52" width="32" height="8" rx="2"/><rect class="cls-9" x="6" y="52" width="24" height="8" rx="2.14"/></g></svg>