<?xml version="1.0" encoding="utf-8"?>
<!-- Generator: Adobe Illustrator 24.3.0, SVG Export Plug-In . SVG Version: 6.00 Build 0)  -->
<svg version="1.1" id="Layer_1" xmlns="http://www.w3.org/2000/svg" xmlns:xlink="http://www.w3.org/1999/xlink" x="0px" y="0px"
	 viewBox="0 0 425 425" enable-background="new 0 0 425 425" xml:space="preserve">
<g>
	<g>
		<linearGradient id="SVGID_1_" gradientUnits="userSpaceOnUse" x1="-820.6039" y1="752.9962" x2="1187.3966" y2="-339.0023">
			<stop  offset="0" style="stop-color:#00C9FF"/>
			<stop  offset="1" style="stop-color:#3B72DE"/>
		</linearGradient>
		<path fill="url(#SVGID_1_)" d="M328.529,91.344H96.471c-2.696,0-4.881,2.185-4.881,4.881v183.954c0,2.695,2.185,4.881,4.881,4.881
			h17.738c2.695,0,4.881-2.185,4.881-4.881c0-2.696-2.186-4.881-4.881-4.881h-12.857V101.106h222.295v174.191H250.96
			c-2.695,0-4.881,2.185-4.881,4.881c0,2.695,2.186,4.881,4.881,4.881h18.728l-19.603,33.953l-23.83-41.275
			c-0.873-1.51-2.484-2.44-4.229-2.44H164.88c-2.695,0-4.881,2.185-4.881,4.881c0,2.695,2.186,4.881,4.881,4.881h54.33
			l26.649,46.156c0.872,1.51,2.484,2.441,4.227,2.441c1.744,0,3.356-0.931,4.228-2.441l26.648-46.156h47.568
			c2.695,0,4.881-2.185,4.881-4.881V96.225C333.41,93.529,331.224,91.344,328.529,91.344z"/>
		<linearGradient id="SVGID_2_" gradientUnits="userSpaceOnUse" x1="-799.8972" y1="791.0692" x2="1208.1013" y2="-300.9283">
			<stop  offset="0" style="stop-color:#00C9FF"/>
			<stop  offset="1" style="stop-color:#3B72DE"/>
		</linearGradient>
		<path fill="url(#SVGID_2_)" d="M149.283,275.297h-19.478c-2.695,0-4.881,2.185-4.881,4.881c0,2.695,2.185,4.881,4.881,4.881
			h19.478c2.696,0,4.882-2.185,4.882-4.881C154.165,277.482,151.979,275.297,149.283,275.297z"/>
	</g>
	<g>
		<g>
			<linearGradient id="SVGID_3_" gradientUnits="userSpaceOnUse" x1="-850.1249" y1="698.7147" x2="1157.8783" y2="-393.2853">
				<stop  offset="0" style="stop-color:#00C9FF"/>
				<stop  offset="1" style="stop-color:#3B72DE"/>
			</linearGradient>
			<path fill="url(#SVGID_3_)" d="M206.83,147.094h-67.285c-2.695,0-4.881-2.186-4.881-4.881c0-2.695,2.186-4.881,4.881-4.881
				h67.285c2.697,0,4.881,2.186,4.881,4.881C211.71,144.909,209.526,147.094,206.83,147.094z"/>
		</g>
		<g>
			<linearGradient id="SVGID_4_" gradientUnits="userSpaceOnUse" x1="-827.3875" y1="740.522" x2="1180.6155" y2="-351.4778">
				<stop  offset="0" style="stop-color:#00C9FF"/>
				<stop  offset="1" style="stop-color:#3B72DE"/>
			</linearGradient>
			<path fill="url(#SVGID_4_)" d="M236.928,193.083h-97.384c-2.695,0-4.881-2.185-4.881-4.881c0-2.695,2.186-4.881,4.881-4.881
				h97.384c2.697,0,4.881,2.186,4.881,4.881C241.809,190.897,239.625,193.083,236.928,193.083z"/>
		</g>
		<g>
			<linearGradient id="SVGID_5_" gradientUnits="userSpaceOnUse" x1="-806.2405" y1="779.4091" x2="1201.765" y2="-312.5921">
				<stop  offset="0" style="stop-color:#00C9FF"/>
				<stop  offset="1" style="stop-color:#3B72DE"/>
			</linearGradient>
			<path fill="url(#SVGID_5_)" d="M253.105,239.071H139.544c-2.695,0-4.881-2.185-4.881-4.881c0-2.696,2.186-4.881,4.881-4.881
				h113.561c2.695,0,4.881,2.186,4.881,4.881C257.986,236.886,255.801,239.071,253.105,239.071z"/>
		</g>
		<g>
			<linearGradient id="SVGID_6_" gradientUnits="userSpaceOnUse" x1="-809.7053" y1="773.045" x2="1198.303" y2="-318.9577">
				<stop  offset="0" style="stop-color:#00C9FF"/>
				<stop  offset="1" style="stop-color:#3B72DE"/>
			</linearGradient>
			<path fill="url(#SVGID_6_)" d="M269.281,193.083h-7.116c-2.695,0-4.881-2.185-4.881-4.881c0-2.695,2.186-4.881,4.881-4.881h7.116
				c2.696,0,4.881,2.186,4.881,4.881C274.162,190.897,271.977,193.083,269.281,193.083z"/>
		</g>
		<g>
			<linearGradient id="SVGID_7_" gradientUnits="userSpaceOnUse" x1="-786.7029" y1="815.3212" x2="1221.2877" y2="-276.672">
				<stop  offset="0" style="stop-color:#00C9FF"/>
				<stop  offset="1" style="stop-color:#3B72DE"/>
			</linearGradient>
			<path fill="url(#SVGID_7_)" d="M285.457,239.071h-7.116c-2.695,0-4.881-2.185-4.881-4.881c0-2.696,2.186-4.881,4.881-4.881h7.116
				c2.696,0,4.88,2.186,4.88,4.881C290.336,236.886,288.152,239.071,285.457,239.071z"/>
		</g>
		<g>
			<linearGradient id="SVGID_8_" gradientUnits="userSpaceOnUse" x1="-835.859" y1="724.9113" x2="1172.1151" y2="-367.0728">
				<stop  offset="0" style="stop-color:#00C9FF"/>
				<stop  offset="1" style="stop-color:#3B72DE"/>
			</linearGradient>
			<path fill="url(#SVGID_8_)" d="M239.182,147.094h-7.116c-2.695,0-4.881-2.186-4.881-4.881c0-2.695,2.186-4.881,4.881-4.881h7.116
				c2.695,0,4.881,2.186,4.881,4.881C244.063,144.909,241.877,147.094,239.182,147.094z"/>
		</g>
	</g>
</g>
</svg>
