<svg xmlns="http://www.w3.org/2000/svg" xmlns:xlink="http://www.w3.org/1999/xlink" viewBox="0 0 64 64"><defs><style>.cls-1{fill:url(#linear-gradient);}.cls-2{fill:url(#linear-gradient-2);}.cls-3{fill:url(#linear-gradient-3);}.cls-4{fill:url(#linear-gradient-4);}.cls-5{fill:url(#linear-gradient-5);}.cls-6{fill:url(#linear-gradient-6);}.cls-7{fill:#d7e9f7;}.cls-8{fill:url(#linear-gradient-7);}</style><linearGradient id="linear-gradient" x1="32" y1="63" x2="32" y2="1" gradientUnits="userSpaceOnUse"><stop offset="0" stop-color="#fe9661"/><stop offset="1" stop-color="#ffb369"/></linearGradient><linearGradient id="linear-gradient-2" x1="17.15" y1="46.86" x2="46.85" y2="17.16" gradientUnits="userSpaceOnUse"><stop offset="0" stop-color="#d3e6f5"/><stop offset="1" stop-color="#f0f7fc"/></linearGradient><linearGradient id="linear-gradient-3" x1="31" y1="17" x2="33" y2="17" gradientUnits="userSpaceOnUse"><stop offset="0" stop-color="#54a5ff"/><stop offset="1" stop-color="#8ad3fe"/></linearGradient><linearGradient id="linear-gradient-4" x1="43" y1="32" x2="52" y2="32" xlink:href="#linear-gradient-3"/><linearGradient id="linear-gradient-5" x1="12" y1="32" x2="21" y2="32" xlink:href="#linear-gradient-3"/><linearGradient id="linear-gradient-6" x1="22.05" y1="40.35" x2="41.95" y2="23.65" xlink:href="#linear-gradient-3"/><linearGradient id="linear-gradient-7" y1="47.5" y2="47.5" xlink:href="#linear-gradient-3"/></defs><title>Target</title><g id="Target"><path class="cls-1" d="M32,1A31,31,0,0,0,12.67,56.26a31.09,31.09,0,0,0,38.66,0A31,31,0,0,0,32,1Z"/><path class="cls-2" d="M32,11A21,21,0,0,0,18.91,48.43,21,21,0,0,0,53,32,21,21,0,0,0,32,11Z"/><path class="cls-3" d="M32,21.5a1,1,0,0,1-1-.9V13.4a1,1,0,0,1,2,0v7.2A1,1,0,0,1,32,21.5Z"/><path class="cls-4" d="M51,33H44a1,1,0,0,1,0-2h7a1,1,0,0,1,0,2Z"/><path class="cls-5" d="M20,33H13a1,1,0,0,1,0-2h7a1,1,0,0,1,0,2Z"/><circle class="cls-6" cx="32" cy="32" r="13"/><path class="cls-7" d="M32,23a5,5,0,0,0-5,5v2a5,5,0,0,0,10,0V28A5,5,0,0,0,32,23Z"/><path class="cls-8" d="M32,52a1,1,0,0,1-1-1V44a1,1,0,0,1,2,0v7A1,1,0,0,1,32,52Z"/><path class="cls-7" d="M40.46,41.19l-.3-1.5a8.32,8.32,0,0,0-16.32,0l-.3,1.51a1,1,0,0,0,.36,1,13,13,0,0,0,16.2,0A1,1,0,0,0,40.46,41.19Z"/></g></svg>