<svg id="Excange" xmlns="http://www.w3.org/2000/svg" xmlns:xlink="http://www.w3.org/1999/xlink" viewBox="0 0 64 64"><defs><style>.cls-1{fill:url(#linear-gradient);}.cls-2{fill:#f0f7fc;}.cls-3{fill:url(#linear-gradient-2);}.cls-4{fill:url(#linear-gradient-3);}.cls-5{fill:url(#linear-gradient-4);}.cls-6{fill:url(#linear-gradient-5);}.cls-7{fill:url(#linear-gradient-6);}.cls-8{fill:url(#linear-gradient-7);}.cls-9{fill:url(#linear-gradient-8);}.cls-10{fill:url(#linear-gradient-9);}.cls-11{fill:url(#linear-gradient-10);}.cls-12{fill:none;}.cls-13{fill:#fe9661;}</style><linearGradient id="linear-gradient" x1="41" y1="61" x2="41" y2="37" gradientUnits="userSpaceOnUse"><stop offset="0" stop-color="#54a5ff"/><stop offset="1" stop-color="#8ad3fe"/></linearGradient><linearGradient id="linear-gradient-2" x1="12.31" y1="23.17" x2="23.69" y2="11.79" xlink:href="#linear-gradient"/><linearGradient id="linear-gradient-3" x1="26.64" y1="16.05" x2="30.75" y2="11.94" xlink:href="#linear-gradient"/><linearGradient id="linear-gradient-4" x1="20.24" y1="8.65" x2="23.85" y2="5.04" xlink:href="#linear-gradient"/><linearGradient id="linear-gradient-5" x1="11.39" y1="9.5" x2="16.71" y2="4.18" xlink:href="#linear-gradient"/><linearGradient id="linear-gradient-6" x1="4.4" y1="16.89" x2="10.19" y2="11.11" xlink:href="#linear-gradient"/><linearGradient id="linear-gradient-7" x1="5.79" y1="23.55" x2="9.01" y2="20.33" xlink:href="#linear-gradient"/><linearGradient id="linear-gradient-8" x1="12.21" y1="29.97" x2="15.92" y2="26.27" xlink:href="#linear-gradient"/><linearGradient id="linear-gradient-9" x1="19.43" y1="30.71" x2="24.64" y2="25.5" xlink:href="#linear-gradient"/><linearGradient id="linear-gradient-10" x1="26.25" y1="24.3" x2="30.95" y2="19.59" xlink:href="#linear-gradient"/></defs><title>Excange</title><rect class="cls-1" x="21" y="37" width="40" height="24" rx="4"/><path class="cls-2" d="M32.83,15.35a13.65,13.65,0,0,0-.7-2.85,15,15,0,0,0-28.26,0,13.92,13.92,0,0,0-.71,2.86.5.5,0,0,1,0,.12c0,.11,0,.22,0,.33A11.2,11.2,0,0,0,3,17.48a12.55,12.55,0,0,0,.1,1.66,14.47,14.47,0,0,0,1.35,4.75,15,15,0,0,0,13.47,8.54,1,1,0,0,0,.18,0,1,1,0,0,0,.23,0A15.07,15.07,0,0,0,31.55,23.9a14.88,14.88,0,0,0,1.35-4.74,15.17,15.17,0,0,0,.1-1.68A12.77,12.77,0,0,0,32.83,15.35ZM19.1,4.58a13.08,13.08,0,0,1,7.35,3.07L24.37,9.72a10,10,0,0,0-5.27-2.2Zm-2,0V7.49a10.08,10.08,0,0,0-5.48,2.23L9.54,7.65A13,13,0,0,1,17.1,4.57ZM5,17.49H5A9.44,9.44,0,0,1,5.1,16a.66.66,0,0,1,0-.14s0-.07,0-.11l0-.16a12.29,12.29,0,0,1,.61-2.46,12.71,12.71,0,0,1,2.38-4.1l2.08,2.07a10,10,0,0,0-1.7,3,9.82,9.82,0,0,0-.48,2l0,.24a9.57,9.57,0,0,0-.07,1.11H5.1ZM6.25,23a12.55,12.55,0,0,1-1.08-3.56h3a9.5,9.5,0,0,0,2.09,4.36L8.13,25.9A12.93,12.93,0,0,1,6.25,23ZM17.1,27.47V30.4a13.11,13.11,0,0,1-7.55-3.09l2.08-2.08a10.09,10.09,0,0,0,5.47,2.22Zm.9-1.95a8.12,8.12,0,0,1-7.29-4.6A7.7,7.7,0,0,1,10,18.36a8.33,8.33,0,0,1-.05-.88A6,6,0,0,1,10,16.6a1,1,0,0,0,0-.17v-.11a7.52,7.52,0,0,1,.38-1.52A8,8,0,0,1,18,9.45h0l.06,0h0a8,8,0,0,1,7.47,5.35A7.71,7.71,0,0,1,26,16.35a6.68,6.68,0,0,1,.08,1.13,6.79,6.79,0,0,1,0,.9,7.85,7.85,0,0,1-.73,2.55A8.1,8.1,0,0,1,18,25.52Zm1.1,4.86V27.44a10.17,10.17,0,0,0,5.27-2.2l2.09,2.07A13.16,13.16,0,0,1,19.1,30.38ZM29.74,23a13.1,13.1,0,0,1-1.88,2.86l-2.09-2.08a9.83,9.83,0,0,0,1.32-2,9.73,9.73,0,0,0,.77-2.32h3A12.93,12.93,0,0,1,29.74,23Zm-1.68-5.57A7.8,7.8,0,0,0,28,16.05a9.36,9.36,0,0,0-.47-1.91,10.12,10.12,0,0,0-1.69-3l2.08-2.07a12.88,12.88,0,0,1,2.38,4.12,12.23,12.23,0,0,1,.61,2.47A11.4,11.4,0,0,1,31,17.47Z"/><path class="cls-3" d="M26,16.35a7.71,7.71,0,0,0-.38-1.54,8,8,0,0,0-7.47-5.35h0l-.06,0h0a8,8,0,0,0-7.6,5.35A7.52,7.52,0,0,0,10,16.32v.11a1,1,0,0,1,0,.17,6,6,0,0,0-.06.88,8.33,8.33,0,0,0,.05.88,7.7,7.7,0,0,0,.73,2.56,8.07,8.07,0,0,0,14.57,0A7.85,7.85,0,0,0,26,18.38a6.79,6.79,0,0,0,0-.9A6.68,6.68,0,0,0,26,16.35Zm-8.38.12h1a2.49,2.49,0,0,1,.5,4.94v1.06a1,1,0,0,1-2,0v-1h-1a1,1,0,0,1,0-2h2.5a.5.5,0,0,0,.5-.5.5.5,0,0,0-.5-.5h-1a2.5,2.5,0,0,1-.5-4.95v-1a1,1,0,1,1,2,0v1h1a1,1,0,0,1,0,2H17.6a.5.5,0,0,0-.5.5A.5.5,0,0,0,17.6,16.47Z"/><path class="cls-4" d="M31,17.47H28.06A7.8,7.8,0,0,0,28,16.05a9.36,9.36,0,0,0-.47-1.91,10.12,10.12,0,0,0-1.69-3l2.08-2.07a12.88,12.88,0,0,1,2.38,4.12,12.23,12.23,0,0,1,.61,2.47A11.4,11.4,0,0,1,31,17.47Z"/><path class="cls-5" d="M26.45,7.65,24.37,9.72a10,10,0,0,0-5.27-2.2V4.58A13.08,13.08,0,0,1,26.45,7.65Z"/><path class="cls-6" d="M17.1,4.57V7.49a10.08,10.08,0,0,0-5.48,2.23L9.54,7.65A13,13,0,0,1,17.1,4.57Z"/><path class="cls-7" d="M10.21,11.13a10,10,0,0,0-1.7,3,9.82,9.82,0,0,0-.48,2l0,.24a9.57,9.57,0,0,0-.07,1.11H5.1l-.1,0H5A9.44,9.44,0,0,1,5.1,16a.66.66,0,0,1,0-.14s0-.07,0-.11l0-.16a12.29,12.29,0,0,1,.61-2.46,12.71,12.71,0,0,1,2.38-4.1Z"/><path class="cls-8" d="M10.22,23.82,8.13,25.9A12.93,12.93,0,0,1,6.25,23a12.55,12.55,0,0,1-1.08-3.56h3a9.5,9.5,0,0,0,2.09,4.36Z"/><path class="cls-9" d="M17.1,27.45V30.4a13.11,13.11,0,0,1-7.55-3.09l2.08-2.08A10.09,10.09,0,0,0,17.1,27.45Z"/><path class="cls-10" d="M19.1,30.38V27.44a10.17,10.17,0,0,0,5.27-2.2l2.09,2.07A13.16,13.16,0,0,1,19.1,30.38Z"/><path class="cls-11" d="M30.83,19.47A12.93,12.93,0,0,1,29.74,23a13.1,13.1,0,0,1-1.88,2.86l-2.09-2.08a9.83,9.83,0,0,0,1.32-2,9.73,9.73,0,0,0,.77-2.32Z"/><path class="cls-2" d="M21.1,19a2.5,2.5,0,0,1-2,2.44v1.06a1,1,0,0,1-2,0v-1h-1a1,1,0,0,1,0-2h2.5a.5.5,0,0,0,.5-.5.5.5,0,0,0-.5-.5h-1a2.5,2.5,0,0,1-.5-4.95v-1a1,1,0,1,1,2,0v1h1a1,1,0,0,1,0,2H17.6a.5.5,0,0,0-.5.5.5.5,0,0,0,.5.5h1A2.5,2.5,0,0,1,21.1,19Z"/><circle class="cls-2" cx="41" cy="49" r="5"/><circle class="cls-12" cx="29" cy="49" r="1"/><circle class="cls-2" cx="53" cy="49" r="3"/><circle class="cls-2" cx="29" cy="49" r="3"/><path class="cls-13" d="M21,48H15c-3.86,0-7-3.42-7-7.63v-2l.29.3a1,1,0,0,0,1.42,0,1,1,0,0,0,0-1.42l-2-2a1,1,0,0,0-1.42,0l-2,2a1,1,0,0,0,0,1.42,1,1,0,0,0,1.42,0l.29-.3v2C6,45.68,10,50,15,50h6a1,1,0,0,0,0-2Z"/><path class="cls-13" d="M48.71,28.29a1,1,0,0,0-1.42,0l-.29.3v-2C47,21.32,43,17,38,17H32a1,1,0,0,0,0,2h6c3.86,0,7,3.42,7,7.63v2l-.29-.3a1,1,0,0,0-1.42,1.42l2,2a1,1,0,0,0,1.42,0l2-2A1,1,0,0,0,48.71,28.29Z"/></svg>