<?xml version="1.0" encoding="utf-8"?>
<!-- Generator: Adobe Illustrator 24.3.0, SVG Export Plug-In . SVG Version: 6.00 Build 0)  -->
<svg version="1.1" id="Layer_1" xmlns="http://www.w3.org/2000/svg" xmlns:xlink="http://www.w3.org/1999/xlink" x="0px" y="0px"
	 viewBox="0 0 425 425" enable-background="new 0 0 425 425" xml:space="preserve">
<g>
	<linearGradient id="SVGID_1_" gradientUnits="userSpaceOnUse" x1="-998.6479" y1="871.1549" x2="1009.3528" y2="-220.8437">
		<stop  offset="0" style="stop-color:#00C9FF"/>
		<stop  offset="1" style="stop-color:#3B72DE"/>
	</linearGradient>
	<path fill="url(#SVGID_1_)" d="M323.907,165.435c-6.092-14.397-14.809-27.329-25.911-38.431
		c-11.102-11.103-24.032-19.82-38.431-25.91c-14.91-6.306-30.744-9.504-47.065-9.504c-21.595,0-42.792,5.764-61.298,16.668
		c-10.984,6.473-20.864,14.65-29.274,24.15c-0.043,0.045-0.082,0.094-0.124,0.14c-5.288,5.993-9.993,12.51-14.017,19.46
		c-1.35,2.333-0.554,5.319,1.778,6.67c2.333,1.352,5.319,0.554,6.67-1.779c2.771-4.783,5.873-9.314,9.268-13.568l18.548,21.562
		c-2.389,3.343-3.799,7.429-3.799,11.841c0,3.717,1.003,7.201,2.744,10.206l-40.809,39.18c-0.549-4.464-0.837-9.008-0.837-13.618
		c0-3.167,0.136-6.367,0.401-9.507c0.229-2.686-1.765-5.048-4.451-5.274c-2.688-0.23-5.049,1.766-5.276,4.452
		c-0.288,3.412-0.436,6.888-0.436,10.329c0,16.321,3.198,32.155,9.504,47.065c6.091,14.398,14.808,27.329,25.91,38.431
		c11.102,11.103,24.033,19.819,38.431,25.91c14.91,6.306,30.746,9.504,47.066,9.504s32.154-3.198,47.065-9.504
		c14.398-6.091,27.329-14.808,38.431-25.91c11.103-11.102,19.819-24.032,25.911-38.431c6.305-14.91,9.503-30.744,9.503-47.065
		C333.41,196.18,330.212,180.345,323.907,165.435z M323.648,212.5c0,4.738-0.3,9.409-0.879,13.994l-12.064-16.872
		c2.597-3.187,4.156-7.249,4.156-11.671c0-10.203-8.301-18.504-18.503-18.504c-3.791,0-7.316,1.148-10.254,3.109l-16.121-14.027
		c2.317-3.934,3.653-8.511,3.653-13.398c0-5.541-1.713-10.688-4.636-14.943l13.751-13.751
		C307.697,146.836,323.648,177.839,323.648,212.5z M296.274,285.466l-25.49-25.489c3.358-4.728,5.333-10.5,5.333-16.727
		c0-5.799-1.715-11.203-4.661-15.737l15.085-13.888c2.848,1.791,6.212,2.831,9.818,2.831c2.253,0,4.413-0.405,6.411-1.146
		l17.49,24.456C315.915,256.93,307.569,272.515,296.274,285.466z M227.956,243.25c0-10.586,8.613-19.198,19.199-19.198
		c10.587,0,19.199,8.612,19.199,19.198c0,10.587-8.612,19.198-19.199,19.198C236.569,262.448,227.956,253.837,227.956,243.25z
		 M172.23,262.284c-1.695-2.206-4.005-3.916-6.674-4.867v-60.855c2.912-0.718,5.579-2.061,7.852-3.878l6.241,4.8
		c0.887,0.684,1.934,1.013,2.973,1.013c1.462,0,2.911-0.655,3.871-1.905c1.645-2.137,1.244-5.201-0.893-6.845l-6.235-4.796
		c1.111-2.517,1.732-5.295,1.732-8.219c0-0.023-0.001-0.047-0.001-0.069l41.997-10.49c3.538,7.679,10.642,13.385,19.18,14.982
		v33.548c-5.639,0.961-10.727,3.559-14.758,7.284l-1.75-1.347c-2.137-1.643-5.2-1.243-6.845,0.893
		c-1.643,2.138-1.243,5.202,0.893,6.846l1.743,1.34c-2.145,4.041-3.362,8.646-3.362,13.531c0,1.397,0.102,2.771,0.293,4.116
		L172.23,262.284z M150.015,176.732c0-5.879,4.783-10.661,10.661-10.661c5.879,0,10.661,4.782,10.661,10.661
		c0,5.879-4.782,10.662-10.661,10.662C154.798,187.395,150.015,182.611,150.015,176.732z M155.872,271.139
		c0-2.649,2.154-4.805,4.804-4.805s4.805,2.155,4.805,4.805c0,2.649-2.155,4.804-4.805,4.804S155.872,273.788,155.872,271.139z
		 M296.359,206.693c-4.821,0-8.742-3.921-8.742-8.742c0-4.819,3.921-8.742,8.742-8.742c4.82,0,8.741,3.923,8.741,8.742
		C305.101,202.772,301.18,206.693,296.359,206.693z M279.928,206.445l-15.086,13.889c-3.672-2.841-8.042-4.818-12.805-5.631v-33.548
		c4.299-0.805,8.233-2.65,11.534-5.267l16.12,14.028c-1.176,2.432-1.836,5.157-1.836,8.034
		C277.855,201.012,278.606,203.899,279.928,206.445z M263.875,155.131c0,9.22-7.5,16.721-16.72,16.721
		c-9.219,0-16.72-7.501-16.72-16.721c0-9.219,7.501-16.72,16.72-16.72C256.375,138.411,263.875,145.912,263.875,155.131z
		 M274.852,120.533L262.1,133.284c-4.256-2.92-9.402-4.635-14.944-4.635c-5.541,0-10.688,1.715-14.944,4.635l-31.316-31.315
		c3.834-0.406,7.706-0.617,11.606-0.617C235.593,101.352,257.06,108.434,274.852,120.533z M189.007,103.885l36.302,36.303
		c-2.922,4.256-4.635,9.403-4.635,14.943c0,0.528,0.02,1.052,0.051,1.572l-41.998,10.49c-3.432-6.468-10.234-10.885-18.051-10.885
		c-3.318,0-6.452,0.802-9.227,2.213l-19.457-22.618C147.351,119.818,167.261,108.621,189.007,103.885z M104.232,237.688
		l45.525-43.708c1.836,1.166,3.868,2.049,6.037,2.583v60.855c-5.637,2.011-9.685,7.402-9.685,13.722
		c0,2.236,0.507,4.355,1.412,6.251L133.9,291.012C119.485,276.58,109.008,258.216,104.232,237.688z M218.676,323.474l0.52-1.236
		c1.046-2.484-0.119-5.347-2.604-6.393c-2.484-1.046-5.347,0.12-6.392,2.604l-2.148,5.102
		c-25.426-1.006-48.682-10.591-66.948-25.938l13.321-13.32c1.895,0.904,4.015,1.411,6.251,1.411c7.887,0,14.324-6.3,14.555-14.131
		l46.26-14.918c2.352,4.485,5.846,8.284,10.094,11.003l-1.718,4.081c-1.047,2.484,0.119,5.347,2.604,6.394
		c0.617,0.259,1.26,0.383,1.892,0.383c1.904,0,3.714-1.123,4.5-2.988l1.714-4.071c2.114,0.494,4.316,0.755,6.579,0.755
		c6.226,0,12-1.976,16.726-5.332l25.659,25.659C270.934,310.455,246.116,321.963,218.676,323.474z"/>
	<linearGradient id="SVGID_2_" gradientUnits="userSpaceOnUse" x1="-1038.3871" y1="798.0729" x2="969.6083" y2="-293.9228">
		<stop  offset="0" style="stop-color:#00C9FF"/>
		<stop  offset="1" style="stop-color:#3B72DE"/>
	</linearGradient>
	<path fill="url(#SVGID_2_)" d="M98.195,191.862c0.359,0.079,0.718,0.118,1.069,0.118c2.236,0,4.252-1.546,4.759-3.818
		c1.355-6.062,3.236-12.051,5.592-17.799c1.023-2.494-0.17-5.345-2.664-6.367c-2.494-1.023-5.344,0.17-6.367,2.664
		c-2.565,6.257-4.612,12.775-6.087,19.374C93.91,188.665,95.566,191.274,98.195,191.862z"/>
	<linearGradient id="SVGID_3_" gradientUnits="userSpaceOnUse" x1="-1002.3241" y1="864.3885" x2="1005.673" y2="-227.6081">
		<stop  offset="0" style="stop-color:#00C9FF"/>
		<stop  offset="1" style="stop-color:#3B72DE"/>
	</linearGradient>
	<path fill="url(#SVGID_3_)" d="M213.402,211.131l-15.436-11.873c-2.137-1.644-5.202-1.244-6.845,0.893
		c-1.644,2.137-1.243,5.201,0.893,6.846l15.437,11.873c0.887,0.682,1.934,1.012,2.973,1.012c1.463,0,2.91-0.655,3.872-1.905
		C215.94,215.839,215.539,212.775,213.402,211.131z"/>
	<linearGradient id="SVGID_4_" gradientUnits="userSpaceOnUse" x1="-960.4534" y1="941.3916" x2="1047.5511" y2="-150.6091">
		<stop  offset="0" style="stop-color:#00C9FF"/>
		<stop  offset="1" style="stop-color:#3B72DE"/>
	</linearGradient>
	<path fill="url(#SVGID_4_)" d="M230.227,283.461c-2.484-1.047-5.346,0.12-6.393,2.605l-7.581,18.008
		c-1.046,2.483,0.119,5.346,2.605,6.392c0.619,0.261,1.26,0.384,1.893,0.384c1.903,0,3.715-1.122,4.499-2.988l7.582-18.007
		C233.877,287.368,232.711,284.507,230.227,283.461z"/>
</g>
</svg>
