<?xml version="1.0" encoding="utf-8"?>
<!-- Generator: Adobe Illustrator 24.3.0, SVG Export Plug-In . SVG Version: 6.00 Build 0)  -->
<svg version="1.1" id="Layer_1" xmlns="http://www.w3.org/2000/svg" xmlns:xlink="http://www.w3.org/1999/xlink" x="0px" y="0px"
	 viewBox="0 0 425 425" enable-background="new 0 0 425 425" xml:space="preserve">
<g>
	<linearGradient id="SVGID_1_" gradientUnits="userSpaceOnUse" x1="-328.0922" y1="558.5956" x2="1679.9086" y2="-533.4031">
		<stop  offset="0" style="stop-color:#00C9FF"/>
		<stop  offset="1" style="stop-color:#3B72DE"/>
	</linearGradient>
	<path fill="url(#SVGID_1_)" d="M328.529,168.716c-2.695,0-4.881,2.185-4.881,4.881v101.701h-20.75
		c-7.526-19.972-21.575-37.023-39.87-48.278c-1.702-1.046-3.871-0.95-5.473,0.243c-13.098,9.754-28.677,14.909-45.055,14.909
		c-16.377,0-31.958-5.155-45.056-14.909c-1.602-1.192-3.771-1.289-5.473-0.243c-18.294,11.254-32.343,28.306-39.869,48.278h-20.751
		v-32.195c0-2.695-2.185-4.881-4.881-4.881c-2.695,0-4.881,2.186-4.881,4.881v37.076c0,2.696,2.186,4.882,4.881,4.882h122.738
		l26.649,46.155c0.872,1.51,2.483,2.44,4.226,2.44c1.744,0,3.356-0.931,4.228-2.44l26.649-46.155h47.568
		c2.696,0,4.881-2.185,4.881-4.882V173.597C333.41,170.9,331.226,168.716,328.529,168.716z M250.96,275.298
		c-2.696,0-4.881,2.186-4.881,4.881c0,2.696,2.185,4.882,4.881,4.882h18.728l-19.604,33.952l-23.83-41.274
		c-0.872-1.51-2.484-2.44-4.228-2.44h-89.411c6.612-15.49,17.666-28.82,31.763-38.229c14.202,9.737,30.765,14.864,48.12,14.864
		c17.355,0,33.918-5.127,48.12-14.864c14.098,9.408,25.151,22.739,31.763,38.229H250.96z"/>
	<linearGradient id="SVGID_2_" gradientUnits="userSpaceOnUse" x1="-374.2985" y1="473.6256" x2="1633.6942" y2="-618.3686">
		<stop  offset="0" style="stop-color:#00C9FF"/>
		<stop  offset="1" style="stop-color:#3B72DE"/>
	</linearGradient>
	<path fill="url(#SVGID_2_)" d="M96.471,232.202c2.695,0,4.881-2.186,4.881-4.881v-19.423c0-2.695-2.185-4.881-4.881-4.881
		c-2.695,0-4.881,2.186-4.881,4.881v19.423C91.59,230.017,93.776,232.202,96.471,232.202z"/>
	<linearGradient id="SVGID_3_" gradientUnits="userSpaceOnUse" x1="-393.158" y1="438.9467" x2="1614.8397" y2="-653.0502">
		<stop  offset="0" style="stop-color:#00C9FF"/>
		<stop  offset="1" style="stop-color:#3B72DE"/>
	</linearGradient>
	<path fill="url(#SVGID_3_)" d="M328.529,91.344H96.471c-2.695,0-4.881,2.186-4.881,4.881v96.078c0,2.695,2.186,4.881,4.881,4.881
		c2.695,0,4.881-2.186,4.881-4.881v-91.197h222.296v21.82c0,2.695,2.186,4.881,4.881,4.881c2.696,0,4.881-2.186,4.881-4.881V96.225
		C333.41,93.529,331.226,91.344,328.529,91.344z"/>
	<linearGradient id="SVGID_4_" gradientUnits="userSpaceOnUse" x1="-350.485" y1="517.3956" x2="1657.4902" y2="-574.5891">
		<stop  offset="0" style="stop-color:#00C9FF"/>
		<stop  offset="1" style="stop-color:#3B72DE"/>
	</linearGradient>
	<path fill="url(#SVGID_4_)" d="M328.529,133.642c-2.695,0-4.881,2.186-4.881,4.881v19.217c0,2.696,2.186,4.882,4.881,4.882
		c2.696,0,4.881-2.186,4.881-4.882v-19.217C333.41,135.827,331.226,133.642,328.529,133.642z"/>
	<linearGradient id="SVGID_5_" gradientUnits="userSpaceOnUse" x1="-369.2031" y1="482.9983" x2="1638.7935" y2="-608.9981">
		<stop  offset="0" style="stop-color:#00C9FF"/>
		<stop  offset="1" style="stop-color:#3B72DE"/>
	</linearGradient>
	<path fill="url(#SVGID_5_)" d="M212.5,222.52c30.804,0,55.865-25.061,55.865-55.865c0-30.805-25.061-55.865-55.865-55.865
		c-30.805,0-55.865,25.061-55.865,55.865C156.635,197.458,181.695,222.52,212.5,222.52z M212.5,120.551
		c22.517,0,41.312,16.226,45.314,37.599c-19.47,5.359-31.778-0.272-44.763-6.214c-11.88-5.438-24.101-11.027-40.975-7.43
		C179.924,130.24,195.101,120.551,212.5,120.551z M167.669,155.887c17.26-6.082,28.449-0.965,41.32,4.926
		c9.656,4.418,20.183,9.238,33.881,9.236c4.811,0,10.017-0.598,15.711-2.014c-0.734,24.785-21.122,44.722-46.081,44.722
		c-25.422,0-46.103-20.682-46.103-46.103C166.397,162.947,166.839,159.342,167.669,155.887z"/>
</g>
</svg>
