<svg id="icon" xmlns="http://www.w3.org/2000/svg" viewBox="0 0 512 512"><polygon points="452.491 256.702 452.491 419.215 244.22 419.215 244.22 186.785 308.634 246.683 452.491 256.702" style="fill:#ccc"/><rect x="331.671" y="303" width="64.156" height="64.156" style="fill:#53737f"/><path d="M171.071,116.543v-.119l-.061.059-.061-.059v.119L76.744,208.75V419.215H265.276V208.75Z" style="fill:#f2f2f2"/><polygon points="171.071 116.424 171.01 116.483 170.949 116.424 170.949 116.543 76.744 208.75 76.744 258.133 170.949 166.118 265.276 258.252 265.276 208.75 171.071 116.543 171.071 116.424" style="fill:#ccc"/><path d="M204.45,419.215h-67V327.771a33.5,33.5,0,1,1,67,0Z" style="fill:#53737f"/><polygon points="318.324 240.038 171.071 92.785 23.575 240.038 41.009 257.472 170.949 127.533 303.219 262.505 318.324 240.038" style="fill:#d85656"/><polygon points="171.071 92.785 341.182 92.785 488.435 240.038 318.324 240.038 171.071 92.785" style="fill:#ff7b69"/><polygon points="303.219 262.505 479.648 262.505 488.435 240.038 318.324 240.038 303.219 262.505" style="fill:#d85656"/><path d="M289.318,419.214a5.821,5.821,0,0,0,5.82,5.821H452.491a5.822,5.822,0,0,0,5.821-5.821v-130.5c-.192-7.636-11.431-7.713-11.641,0v124.68H295.138A5.82,5.82,0,0,0,289.318,419.214Z" style="fill:#333"/><path d="M395.827,372.976a5.82,5.82,0,0,0,5.82-5.82V303a5.821,5.821,0,0,0-5.82-5.821H331.671A5.821,5.821,0,0,0,325.85,303v64.156a5.821,5.821,0,0,0,5.821,5.82ZM337.491,308.82h52.516v52.516H337.491Z" style="fill:#333"/><path d="M494.078,241.454a5.851,5.851,0,0,0-1.429-5.416c.043-.078-147.336-147.283-147.351-147.367a5.821,5.821,0,0,0-4.116-1.706H171.071a6,6,0,0,0-4.112,1.7L19.462,235.919a5.859,5.859,0,0,0,0,8.234l17.434,17.434a5.819,5.819,0,0,0,8.232,0l25.8-25.8V419.214a5.821,5.821,0,0,0,5.82,5.821c55.9-.011,132.636.007,188.532,0a5.82,5.82,0,0,0,5.821-5.82V262.906a5.821,5.821,0,0,0-11.641,0V413.394H210.271V327.771a39.322,39.322,0,1,0-78.643,0v85.623H82.564V224.148l88.344-88.343L299.062,266.579a5.916,5.916,0,0,0,4.157,1.746H479.648a5.82,5.82,0,0,0,5.42-3.7l8.787-22.467A5.8,5.8,0,0,0,494.078,241.454Zm-350.81,86.317c1.3-36.638,54.066-36.628,55.362,0v85.622H143.268Zm195.5-229.165L474.383,234.218H320.734L185.122,98.606Zm-36.4,154.723L175.106,123.459a5.819,5.819,0,0,0-8.272-.042L41.009,249.24l-9.2-9.2L171.067,101.013,310.821,240.766Zm173.3,3.356H314.146l7.278-10.826H479.909Z" style="fill:#333"/></svg>